<svg xmlns="http://www.w3.org/2000/svg" xmlns:xlink="http://www.w3.org/1999/xlink" width="500" zoomAndPan="magnify" viewBox="0 0 375 374.999991" height="500" preserveAspectRatio="xMidYMid meet" version="1.0"><defs><g/><clipPath id="88a235fced"><path d="M 37.5 65 L 349.5 65 L 349.5 318.5 L 37.5 318.5 Z M 37.5 65 " clip-rule="nonzero"/></clipPath><clipPath id="71c3584b27"><path d="M 311.820312 204.601562 C 311.820312 194.175781 320.257812 185.785156 330.683594 185.785156 C 341.109375 185.785156 349.5 194.222656 349.5 204.601562 C 349.5 215.027344 341.0625 223.414062 330.683594 223.414062 C 327.4375 223.414062 324.332031 222.589844 321.664062 221.136719 L 308.085938 241.117188 C 311.289062 243.929688 313.324219 248.050781 313.324219 252.707031 C 313.324219 261.191406 306.4375 268.078125 297.953125 268.078125 C 289.464844 268.078125 282.582031 261.191406 282.582031 252.707031 C 282.582031 246.886719 285.828125 241.792969 290.628906 239.222656 L 286.800781 229.527344 C 285.925781 229.71875 285.003906 229.816406 284.082031 229.816406 C 277.34375 229.816406 271.914062 224.335938 271.914062 217.644531 C 271.914062 210.90625 277.390625 205.425781 284.082031 205.425781 C 285.199219 205.425781 286.3125 205.570312 287.332031 205.863281 L 295.238281 188.308594 C 293.296875 186.804688 292.035156 184.476562 292.035156 181.855469 C 292.035156 177.347656 295.671875 173.710938 300.183594 173.710938 C 302.171875 173.710938 303.964844 174.390625 305.371094 175.601562 L 319.53125 164.835938 C 318.511719 162.992188 317.929688 160.8125 317.929688 158.53125 C 317.929688 154.75 319.582031 151.308594 322.148438 148.929688 L 313.421875 136.078125 C 311.773438 136.855469 309.929688 137.292969 307.992188 137.292969 C 303.433594 137.292969 299.457031 134.867188 297.273438 131.277344 L 283.988281 136.855469 C 283.988281 137.050781 284.035156 137.242188 284.035156 137.390625 C 284.035156 140.445312 281.804688 142.964844 278.894531 143.449219 L 277.101562 156.351562 C 281.5625 157.757812 284.761719 161.925781 284.761719 166.824219 C 284.761719 172.886719 279.816406 177.832031 273.753906 177.832031 C 269.679688 177.832031 266.140625 175.601562 264.203125 172.304688 L 248.441406 178.125 C 248.441406 178.171875 248.441406 178.21875 248.441406 178.316406 C 248.441406 181.566406 245.824219 184.183594 242.574219 184.183594 C 242.234375 184.183594 241.847656 184.136719 241.507812 184.089844 L 233.507812 198.636719 C 234.476562 199.507812 235.300781 200.574219 235.832031 201.789062 L 257.945312 197.132812 C 258.285156 194.222656 260.757812 191.945312 263.765625 191.945312 C 267.015625 191.945312 269.632812 194.5625 269.632812 197.8125 C 269.632812 200.816406 267.355469 203.292969 264.445312 203.628906 L 257.945312 234.667969 C 264.832031 236.898438 269.777344 243.347656 269.777344 250.960938 C 269.777344 260.417969 262.117188 268.125 252.613281 268.125 C 252.320312 268.125 252.03125 268.125 251.738281 268.125 L 249.167969 284.03125 C 251.496094 285.097656 253.144531 287.476562 253.144531 290.238281 C 253.144531 293.34375 251.109375 295.914062 248.296875 296.785156 L 248.539062 308.8125 C 250.332031 309.492188 251.640625 311.285156 251.640625 313.320312 C 251.640625 315.988281 249.460938 318.171875 246.792969 318.171875 C 244.125 318.171875 241.945312 315.988281 241.945312 313.320312 C 241.945312 312.835938 242.039062 312.351562 242.1875 311.867188 L 233.699219 304.789062 C 232.632812 305.515625 231.324219 305.949219 229.871094 305.949219 C 226.136719 305.949219 223.128906 302.945312 223.128906 299.210938 C 223.128906 296.542969 224.679688 294.265625 226.910156 293.148438 L 225.457031 285.097656 C 225.359375 285.097656 225.214844 285.097656 225.117188 285.097656 C 218.328125 285.097656 212.800781 279.570312 212.800781 272.78125 C 212.800781 265.992188 218.328125 260.464844 225.117188 260.464844 C 228.367188 260.464844 231.277344 261.726562 233.457031 263.761719 L 238.160156 260.027344 C 236.464844 257.359375 235.496094 254.257812 235.496094 250.863281 C 235.496094 247.613281 236.414062 244.558594 238.015625 241.941406 L 225.988281 232.726562 C 225.070312 233.355469 223.953125 233.746094 222.742188 233.746094 C 221.429688 233.746094 220.21875 233.308594 219.25 232.582031 L 211.636719 237.867188 C 212.992188 240.339844 213.722656 243.152344 213.722656 246.160156 C 213.722656 255.761719 205.960938 263.519531 196.359375 263.519531 C 188.214844 263.519531 181.425781 257.941406 179.535156 250.378906 L 166.539062 252.171875 C 166.394531 258.332031 161.347656 263.277344 155.140625 263.277344 C 148.839844 263.277344 143.746094 258.183594 143.746094 251.882812 C 143.746094 245.578125 148.839844 240.484375 155.140625 240.484375 C 156.304688 240.484375 157.421875 240.679688 158.441406 240.96875 L 172.308594 212.894531 C 168.769531 210.515625 166.34375 206.636719 165.90625 202.175781 L 154.464844 201.789062 C 153.640625 203.921875 151.601562 205.425781 149.179688 205.425781 C 148.546875 205.425781 147.964844 205.328125 147.382812 205.132812 L 138.21875 217.015625 C 141.078125 219.828125 142.824219 223.707031 142.824219 228.023438 C 142.824219 236.558594 135.890625 243.492188 127.355469 243.492188 C 120.179688 243.492188 114.117188 238.546875 112.371094 231.902344 L 101.753906 233.308594 C 101.558594 239.371094 96.5625 244.269531 90.453125 244.269531 C 84.199219 244.269531 79.15625 239.222656 79.15625 232.96875 C 79.15625 227.054688 83.714844 222.203125 89.53125 221.71875 L 90.550781 209.304688 C 88.515625 208.429688 87.109375 206.394531 87.109375 204.019531 C 87.109375 200.867188 89.679688 198.246094 92.878906 198.246094 C 93.605469 198.246094 94.234375 198.394531 94.867188 198.585938 L 116.542969 171.917969 C 116.007812 171.042969 115.667969 169.976562 115.667969 168.859375 C 115.667969 167.308594 116.300781 165.902344 117.269531 164.882812 L 113.925781 158.386719 C 112.226562 159.015625 110.433594 159.355469 108.542969 159.355469 C 105.824219 159.355469 103.253906 158.628906 101.074219 157.417969 L 88.027344 175.503906 C 89.386719 177.007812 90.210938 179.042969 90.210938 181.273438 C 90.210938 186.027344 86.332031 189.90625 81.578125 189.90625 C 80.609375 189.90625 79.640625 189.761719 78.765625 189.421875 L 65.140625 211.632812 C 68.242188 214.152344 70.183594 217.984375 70.183594 222.300781 C 70.183594 229.914062 64.023438 236.074219 56.410156 236.074219 C 48.796875 236.074219 42.640625 229.914062 42.640625 222.300781 C 42.640625 216.09375 46.761719 210.855469 52.386719 209.109375 L 51.320312 202.5625 C 51.222656 202.5625 51.175781 202.5625 51.078125 202.5625 C 43.996094 202.5625 38.277344 196.839844 38.277344 189.761719 C 38.277344 182.730469 43.949219 177.007812 50.980469 176.960938 L 51.757812 171.285156 C 43.5625 169.296875 37.453125 161.878906 37.453125 153.050781 C 37.453125 142.722656 45.839844 134.335938 56.167969 134.335938 C 64.753906 134.335938 72.027344 140.105469 74.207031 148.007812 L 93.070312 144.664062 C 93.070312 144.371094 93.070312 144.128906 93.070312 143.839844 C 93.070312 141.21875 93.75 138.746094 94.867188 136.566406 L 80.949219 126.816406 C 79.398438 128.273438 77.3125 129.144531 75.03125 129.144531 C 70.230469 129.144531 66.304688 125.21875 66.304688 120.417969 C 66.304688 115.617188 70.230469 111.6875 75.03125 111.6875 C 79.832031 111.6875 83.761719 115.617188 83.761719 120.417969 C 83.761719 121.628906 83.519531 122.746094 83.082031 123.761719 L 97 133.507812 C 98.988281 131.277344 101.65625 129.628906 104.613281 128.855469 L 104.566406 114.742188 C 99.328125 113.871094 95.351562 109.359375 95.351562 103.878906 C 95.351562 97.820312 100.296875 92.871094 106.359375 92.871094 C 109.949219 92.871094 113.097656 94.570312 115.085938 97.1875 L 132.691406 87.976562 C 132.253906 86.664062 132.011719 85.308594 132.011719 83.851562 C 132.011719 76.917969 137.636719 71.246094 144.621094 71.246094 C 151.554688 71.246094 157.226562 76.871094 157.226562 83.851562 C 157.226562 88.460938 154.753906 92.53125 151.019531 94.714844 L 156.839844 109.070312 C 157.761719 108.875 158.683594 108.730469 159.699219 108.730469 C 161.980469 108.730469 164.160156 109.359375 166.003906 110.476562 L 179.195312 94.472656 C 176.1875 91.371094 174.296875 87.148438 174.296875 82.496094 C 174.296875 73.039062 181.957031 65.328125 191.464844 65.328125 C 200.917969 65.328125 208.628906 72.992188 208.628906 82.496094 C 208.628906 86.714844 207.078125 90.59375 204.554688 93.550781 L 217.648438 107.324219 C 218.425781 106.933594 219.296875 106.742188 220.21875 106.742188 C 220.460938 106.742188 220.703125 106.742188 220.898438 106.789062 L 227.882812 91.707031 C 225.019531 89.71875 223.128906 86.421875 223.128906 82.640625 C 223.128906 76.578125 228.074219 71.632812 234.136719 71.632812 C 240.199219 71.632812 245.144531 76.578125 245.144531 82.640625 C 245.144531 84 244.902344 85.308594 244.464844 86.472656 L 255.570312 92.921875 C 258.335938 89.285156 262.746094 86.90625 267.644531 86.90625 C 276.035156 86.90625 282.824219 93.695312 282.824219 102.085938 C 282.824219 104.121094 282.433594 106.0625 281.707031 107.808594 L 298.097656 116.972656 C 300.378906 114.015625 303.964844 112.074219 308.039062 112.074219 C 314.972656 112.074219 320.597656 117.699219 320.597656 124.636719 C 320.597656 128.273438 319.046875 131.570312 316.574219 133.847656 L 325.300781 146.699219 C 327 145.875 328.9375 145.390625 330.976562 145.390625 C 338.152344 145.390625 343.972656 151.210938 343.972656 158.386719 C 343.972656 165.5625 338.152344 171.382812 330.976562 171.382812 C 327.4375 171.382812 324.1875 169.976562 321.859375 167.648438 L 307.699219 178.414062 C 308.136719 179.433594 308.378906 180.546875 308.378906 181.710938 C 308.378906 186.222656 304.742188 189.859375 300.230469 189.859375 C 299.699219 189.859375 299.164062 189.808594 298.679688 189.714844 L 290.777344 207.269531 C 294.121094 209.449219 296.351562 213.230469 296.351562 217.5 C 296.351562 221.960938 293.925781 225.890625 290.339844 228.023438 L 294.171875 237.722656 C 295.429688 237.382812 296.691406 237.238281 298.050781 237.238281 C 300.570312 237.238281 302.996094 237.867188 305.082031 238.933594 L 318.660156 218.953125 C 314.535156 215.511719 311.917969 210.324219 311.917969 204.503906 Z M 108.347656 128.464844 L 108.300781 114.792969 C 113.488281 113.917969 117.414062 109.359375 117.414062 103.929688 C 117.414062 102.765625 117.222656 101.601562 116.882812 100.535156 L 134.484375 91.320312 C 136.765625 94.472656 140.496094 96.507812 144.667969 96.507812 C 145.6875 96.507812 146.65625 96.414062 147.625 96.171875 L 153.445312 110.523438 C 149.855469 112.65625 147.433594 116.585938 147.433594 121.09375 C 147.433594 126.527344 150.972656 131.132812 155.871094 132.78125 L 153.25 148.300781 C 152.910156 148.300781 152.574219 148.25 152.183594 148.25 C 142.582031 148.25 134.824219 156.011719 134.824219 165.613281 C 134.824219 175.214844 142.582031 182.972656 152.183594 182.972656 C 161.300781 182.972656 168.769531 175.941406 169.496094 167.019531 L 179.535156 166.726562 C 180.359375 168.910156 182.445312 170.460938 184.917969 170.460938 C 186.664062 170.460938 188.214844 169.683594 189.28125 168.425781 L 202.421875 173.660156 C 202.277344 174.4375 202.179688 175.214844 202.179688 175.988281 C 202.179688 182.101562 207.175781 187.09375 213.285156 187.09375 C 219.394531 187.09375 224.390625 182.101562 224.390625 175.988281 C 224.390625 173.324219 223.417969 170.847656 221.867188 168.910156 L 235.785156 152.808594 C 238.210938 154.410156 241.121094 155.378906 244.222656 155.378906 C 252.613281 155.378906 259.402344 148.589844 259.402344 140.203125 C 259.402344 131.8125 252.613281 125.023438 244.222656 125.023438 C 241.070312 125.023438 238.113281 125.992188 235.6875 127.640625 L 225.3125 115.761719 C 225.84375 114.886719 226.136719 113.820312 226.136719 112.707031 C 226.136719 111.007812 225.40625 109.457031 224.246094 108.339844 L 231.179688 93.261719 C 232.101562 93.503906 233.070312 93.648438 234.039062 93.648438 C 237.433594 93.648438 240.488281 92.097656 242.476562 89.671875 L 253.582031 96.121094 C 252.804688 97.964844 252.371094 99.953125 252.371094 102.085938 C 252.371094 110.476562 259.160156 117.265625 267.546875 117.265625 C 268.371094 117.265625 269.195312 117.214844 269.972656 117.070312 L 274.335938 132.152344 C 272.6875 133.265625 271.621094 135.109375 271.621094 137.242188 C 271.621094 139.71875 273.074219 141.800781 275.113281 142.820312 L 273.320312 155.71875 C 267.402344 155.914062 262.648438 160.761719 262.648438 166.726562 C 262.648438 167.40625 262.699219 168.085938 262.84375 168.765625 L 247.085938 174.582031 C 246.015625 173.226562 244.367188 172.402344 242.527344 172.402344 C 239.277344 172.402344 236.660156 175.019531 236.660156 178.269531 C 236.660156 179.820312 237.238281 181.179688 238.210938 182.246094 L 230.207031 196.792969 C 229.382812 196.550781 228.511719 196.40625 227.640625 196.40625 C 222.691406 196.40625 218.714844 200.382812 218.714844 205.328125 C 218.714844 210.273438 222.691406 214.25 227.640625 214.25 C 232.585938 214.25 236.5625 210.273438 236.5625 205.328125 L 258.675781 200.625 C 259.207031 201.496094 259.886719 202.222656 260.757812 202.710938 L 254.261719 233.746094 C 253.726562 233.695312 253.144531 233.648438 252.5625 233.648438 C 247.714844 233.648438 243.300781 235.683594 240.148438 238.933594 L 228.125 229.71875 C 228.316406 229.136719 228.464844 228.460938 228.464844 227.828125 C 228.464844 224.578125 225.84375 221.960938 222.59375 221.960938 C 219.347656 221.960938 216.726562 224.578125 216.726562 227.828125 C 216.726562 228.410156 216.824219 228.945312 216.96875 229.476562 L 209.355469 234.761719 C 206.15625 231.078125 201.453125 228.75 196.214844 228.75 C 186.613281 228.75 178.855469 236.507812 178.855469 246.109375 C 178.855469 246.304688 178.855469 246.5 178.855469 246.644531 L 165.859375 248.4375 C 165.132812 246.0625 163.582031 243.976562 161.59375 242.570312 L 175.460938 214.492188 C 176.914062 214.976562 178.515625 215.269531 180.164062 215.269531 C 188.164062 215.269531 194.664062 208.769531 194.664062 200.769531 C 194.664062 192.769531 188.164062 186.320312 180.164062 186.320312 C 172.988281 186.320312 167.023438 191.554688 165.859375 198.441406 L 154.414062 198.054688 C 153.6875 195.726562 151.554688 194.078125 149.03125 194.078125 C 145.929688 194.078125 143.359375 196.597656 143.359375 199.75 C 143.359375 200.914062 143.699219 201.933594 144.28125 202.855469 L 135.117188 214.734375 C 132.789062 213.328125 130.070312 212.554688 127.210938 212.554688 C 118.675781 212.554688 111.742188 219.488281 111.742188 228.023438 C 111.742188 228.070312 111.742188 228.167969 111.742188 228.214844 L 101.121094 229.621094 C 99.957031 225.890625 96.902344 222.929688 93.074219 221.960938 L 94.089844 209.546875 C 96.613281 208.917969 98.453125 206.636719 98.453125 203.96875 C 98.453125 202.855469 98.117188 201.789062 97.582031 200.914062 L 119.257812 174.242188 C 119.886719 174.488281 120.566406 174.582031 121.246094 174.582031 C 124.445312 174.582031 127.015625 172.011719 127.015625 168.8125 C 127.015625 165.660156 124.445312 163.042969 121.246094 163.042969 C 120.957031 163.042969 120.664062 163.042969 120.421875 163.089844 L 117.074219 156.59375 C 121.148438 153.828125 123.863281 149.125 123.863281 143.789062 C 123.863281 135.253906 116.929688 128.320312 108.394531 128.320312 C 108.300781 128.320312 108.25 128.320312 108.203125 128.320312 Z M 156.886719 148.929688 L 159.507812 133.414062 C 159.554688 133.414062 159.652344 133.414062 159.699219 133.414062 C 164.164062 133.414062 168.042969 131.035156 170.222656 127.496094 L 188.164062 134.914062 C 187.921875 135.933594 187.777344 136.953125 187.777344 138.066406 C 187.777344 145.148438 193.5 150.871094 200.578125 150.871094 C 207.660156 150.871094 213.382812 145.148438 213.382812 138.066406 C 213.382812 134.625 212.023438 131.519531 209.84375 129.195312 L 218.230469 118.378906 C 218.863281 118.621094 219.539062 118.71875 220.21875 118.71875 C 221.042969 118.71875 221.820312 118.574219 222.546875 118.234375 L 232.925781 130.113281 C 230.5 132.78125 229.046875 136.371094 229.046875 140.25 C 229.046875 144.179688 230.546875 147.71875 232.972656 150.433594 L 219.054688 166.535156 C 217.359375 165.515625 215.417969 164.933594 213.285156 164.933594 C 209.261719 164.933594 205.769531 167.066406 203.78125 170.265625 L 190.640625 165.03125 C 190.640625 164.933594 190.640625 164.835938 190.640625 164.738281 C 190.640625 161.539062 188.070312 158.96875 184.867188 158.96875 C 182.296875 158.96875 180.117188 160.664062 179.390625 163.042969 L 169.351562 163.332031 C 168.429688 156.398438 163.433594 150.820312 156.839844 148.929688 Z M 201.839844 96.171875 L 214.933594 109.941406 C 214.496094 110.765625 214.207031 111.734375 214.207031 112.753906 C 214.207031 113.96875 214.59375 115.128906 215.222656 116.101562 L 206.835938 126.914062 C 204.992188 125.847656 202.808594 125.265625 200.53125 125.265625 C 195.875 125.265625 191.804688 127.789062 189.570312 131.472656 L 171.628906 124.003906 C 171.871094 123.082031 171.96875 122.066406 171.96875 121.046875 C 171.96875 117.894531 170.757812 115.035156 168.816406 112.851562 L 182.007812 96.847656 C 184.722656 98.644531 187.921875 99.660156 191.414062 99.660156 C 195.34375 99.660156 198.929688 98.351562 201.839844 96.121094 Z M 277.925781 131.230469 L 273.5625 116.101562 C 276.082031 115.035156 278.214844 113.289062 279.816406 111.105469 L 296.207031 120.269531 C 295.671875 121.628906 295.382812 123.132812 295.382812 124.683594 C 295.382812 125.75 295.527344 126.769531 295.769531 127.789062 L 282.484375 133.363281 C 281.367188 132.054688 279.769531 131.230469 277.925781 131.183594 Z M 248.152344 267.449219 L 245.582031 283.351562 C 242.1875 283.742188 239.519531 286.652344 239.519531 290.140625 C 239.519531 293.34375 241.703125 296.011719 244.660156 296.785156 L 244.902344 308.8125 C 244.804688 308.859375 244.660156 308.910156 244.5625 308.957031 L 236.078125 301.878906 C 236.464844 301.054688 236.660156 300.132812 236.660156 299.160156 C 236.660156 295.671875 233.992188 292.808594 230.597656 292.46875 L 229.140625 284.421875 C 233.992188 282.769531 237.484375 278.164062 237.484375 272.78125 C 237.484375 270.550781 236.902344 268.464844 235.832031 266.671875 L 240.539062 262.9375 C 242.621094 265.023438 245.242188 266.625 248.199219 267.398438 Z M 98.066406 155.28125 L 85.023438 173.371094 C 83.957031 172.933594 82.792969 172.644531 81.578125 172.644531 C 76.828125 172.644531 72.949219 176.523438 72.949219 181.273438 C 72.949219 183.699219 73.964844 185.929688 75.613281 187.484375 L 61.988281 209.691406 C 60.292969 208.917969 58.398438 208.527344 56.410156 208.527344 C 56.265625 208.527344 56.167969 208.527344 56.023438 208.527344 L 54.957031 201.980469 C 60.144531 200.332031 63.878906 195.484375 63.878906 189.808594 C 63.878906 183.992188 60 179.09375 54.667969 177.542969 L 55.441406 171.867188 C 55.683594 171.867188 55.925781 171.867188 56.21875 171.867188 C 66.546875 171.867188 74.9375 163.476562 74.9375 153.148438 C 74.9375 152.664062 74.9375 152.226562 74.886719 151.742188 L 93.75 148.445312 C 94.574219 151.113281 96.078125 153.488281 98.066406 155.332031 Z M 112.226562 193.011719 C 112.226562 186.949219 117.171875 182.003906 123.234375 182.003906 C 129.296875 182.003906 134.242188 186.949219 134.242188 193.011719 C 134.242188 199.074219 129.296875 204.019531 123.234375 204.019531 C 117.171875 204.019531 112.226562 199.074219 112.226562 193.011719 Z M 124.011719 119.15625 C 124.011719 115.957031 126.582031 113.386719 129.78125 113.386719 C 132.980469 113.386719 135.550781 115.957031 135.550781 119.15625 C 135.550781 122.308594 132.980469 124.925781 129.78125 124.925781 C 126.628906 124.925781 124.011719 122.355469 124.011719 119.15625 Z M 124.011719 119.15625 " clip-rule="evenodd"/></clipPath><linearGradient x1="39.985145" gradientTransform="matrix(4.849238, 0, 0, 4.849309, 37.500004, 65.376888)" y1="-0.154472" x2="39.673595" gradientUnits="userSpaceOnUse" y2="52.365343" id="4ee7a15960"><stop stop-opacity="1" stop-color="rgb(100%, 34.098816%, 13.299561%)" offset="0"/><stop stop-opacity="1" stop-color="rgb(100%, 34.098816%, 13.299561%)" offset="0.00726688"/><stop stop-opacity="1" stop-color="rgb(100%, 34.098816%, 13.299561%)" offset="0.0625"/><stop stop-opacity="1" stop-color="rgb(100%, 34.098816%, 13.299561%)" offset="0.09375"/><stop stop-opacity="1" stop-color="rgb(100%, 34.098816%, 13.299561%)" offset="0.109375"/><stop stop-opacity="1" stop-color="rgb(100%, 34.207153%, 13.270569%)" offset="0.117188"/><stop stop-opacity="1" stop-color="rgb(100%, 34.512329%, 13.192749%)" offset="0.125"/><stop stop-opacity="1" stop-color="rgb(100%, 34.901428%, 13.093567%)" offset="0.132812"/><stop stop-opacity="1" stop-color="rgb(100%, 35.290527%, 12.994385%)" offset="0.140625"/><stop stop-opacity="1" stop-color="rgb(100%, 35.679626%, 12.895203%)" offset="0.148438"/><stop stop-opacity="1" stop-color="rgb(100%, 36.070251%, 12.796021%)" offset="0.15625"/><stop stop-opacity="1" stop-color="rgb(100%, 36.459351%, 12.696838%)" offset="0.164062"/><stop stop-opacity="1" stop-color="rgb(100%, 36.84845%, 12.597656%)" offset="0.171875"/><stop stop-opacity="1" stop-color="rgb(100%, 37.237549%, 12.498474%)" offset="0.179688"/><stop stop-opacity="1" stop-color="rgb(100%, 37.626648%, 12.399292%)" offset="0.1875"/><stop stop-opacity="1" stop-color="rgb(100%, 38.017273%, 12.30011%)" offset="0.195313"/><stop stop-opacity="1" stop-color="rgb(100%, 38.406372%, 12.200928%)" offset="0.203125"/><stop stop-opacity="1" stop-color="rgb(100%, 38.795471%, 12.101746%)" offset="0.210938"/><stop stop-opacity="1" stop-color="rgb(100%, 39.18457%, 12.002563%)" offset="0.21875"/><stop stop-opacity="1" stop-color="rgb(100%, 39.575195%, 11.903381%)" offset="0.226563"/><stop stop-opacity="1" stop-color="rgb(100%, 39.964294%, 11.804199%)" offset="0.234375"/><stop stop-opacity="1" stop-color="rgb(100%, 40.353394%, 11.705017%)" offset="0.242188"/><stop stop-opacity="1" stop-color="rgb(100%, 40.742493%, 11.605835%)" offset="0.25"/><stop stop-opacity="1" stop-color="rgb(100%, 41.131592%, 11.506653%)" offset="0.257812"/><stop stop-opacity="1" stop-color="rgb(100%, 41.522217%, 11.407471%)" offset="0.265625"/><stop stop-opacity="1" stop-color="rgb(100%, 41.911316%, 11.308289%)" offset="0.273438"/><stop stop-opacity="1" stop-color="rgb(100%, 42.300415%, 11.209106%)" offset="0.28125"/><stop stop-opacity="1" stop-color="rgb(100%, 42.689514%, 11.109924%)" offset="0.289063"/><stop stop-opacity="1" stop-color="rgb(100%, 43.080139%, 11.010742%)" offset="0.296875"/><stop stop-opacity="1" stop-color="rgb(100%, 43.469238%, 10.91156%)" offset="0.304688"/><stop stop-opacity="1" stop-color="rgb(100%, 43.858337%, 10.812378%)" offset="0.3125"/><stop stop-opacity="1" stop-color="rgb(100%, 44.247437%, 10.713196%)" offset="0.320312"/><stop stop-opacity="1" stop-color="rgb(100%, 44.636536%, 10.612488%)" offset="0.328125"/><stop stop-opacity="1" stop-color="rgb(100%, 45.027161%, 10.513306%)" offset="0.335938"/><stop stop-opacity="1" stop-color="rgb(100%, 45.41626%, 10.414124%)" offset="0.34375"/><stop stop-opacity="1" stop-color="rgb(100%, 45.805359%, 10.314941%)" offset="0.351562"/><stop stop-opacity="1" stop-color="rgb(100%, 46.194458%, 10.215759%)" offset="0.359375"/><stop stop-opacity="1" stop-color="rgb(100%, 46.585083%, 10.116577%)" offset="0.367188"/><stop stop-opacity="1" stop-color="rgb(100%, 46.974182%, 10.017395%)" offset="0.375"/><stop stop-opacity="1" stop-color="rgb(100%, 47.363281%, 9.918213%)" offset="0.382813"/><stop stop-opacity="1" stop-color="rgb(100%, 47.75238%, 9.819031%)" offset="0.390625"/><stop stop-opacity="1" stop-color="rgb(100%, 48.141479%, 9.719849%)" offset="0.398438"/><stop stop-opacity="1" stop-color="rgb(100%, 48.532104%, 9.620667%)" offset="0.40625"/><stop stop-opacity="1" stop-color="rgb(100%, 48.921204%, 9.521484%)" offset="0.414063"/><stop stop-opacity="1" stop-color="rgb(100%, 49.310303%, 9.422302%)" offset="0.421875"/><stop stop-opacity="1" stop-color="rgb(100%, 49.699402%, 9.32312%)" offset="0.429688"/><stop stop-opacity="1" stop-color="rgb(100%, 50.088501%, 9.223938%)" offset="0.4375"/><stop stop-opacity="1" stop-color="rgb(100%, 50.479126%, 9.124756%)" offset="0.445313"/><stop stop-opacity="1" stop-color="rgb(100%, 50.868225%, 9.025574%)" offset="0.453125"/><stop stop-opacity="1" stop-color="rgb(100%, 51.257324%, 8.926392%)" offset="0.460938"/><stop stop-opacity="1" stop-color="rgb(100%, 51.646423%, 8.827209%)" offset="0.46875"/><stop stop-opacity="1" stop-color="rgb(100%, 52.037048%, 8.728027%)" offset="0.476562"/><stop stop-opacity="1" stop-color="rgb(100%, 52.426147%, 8.628845%)" offset="0.484375"/><stop stop-opacity="1" stop-color="rgb(100%, 52.815247%, 8.529663%)" offset="0.492188"/><stop stop-opacity="1" stop-color="rgb(100%, 53.204346%, 8.430481%)" offset="0.5"/><stop stop-opacity="1" stop-color="rgb(100%, 53.593445%, 8.331299%)" offset="0.507812"/><stop stop-opacity="1" stop-color="rgb(100%, 53.98407%, 8.232117%)" offset="0.515625"/><stop stop-opacity="1" stop-color="rgb(100%, 54.373169%, 8.132935%)" offset="0.523438"/><stop stop-opacity="1" stop-color="rgb(100%, 54.762268%, 8.033752%)" offset="0.53125"/><stop stop-opacity="1" stop-color="rgb(100%, 55.151367%, 7.93457%)" offset="0.539062"/><stop stop-opacity="1" stop-color="rgb(100%, 55.541992%, 7.835388%)" offset="0.546875"/><stop stop-opacity="1" stop-color="rgb(100%, 55.931091%, 7.736206%)" offset="0.554687"/><stop stop-opacity="1" stop-color="rgb(100%, 56.32019%, 7.637024%)" offset="0.5625"/><stop stop-opacity="1" stop-color="rgb(100%, 56.70929%, 7.536316%)" offset="0.570312"/><stop stop-opacity="1" stop-color="rgb(100%, 57.098389%, 7.437134%)" offset="0.578125"/><stop stop-opacity="1" stop-color="rgb(100%, 57.489014%, 7.337952%)" offset="0.585937"/><stop stop-opacity="1" stop-color="rgb(100%, 57.878113%, 7.23877%)" offset="0.59375"/><stop stop-opacity="1" stop-color="rgb(100%, 58.267212%, 7.139587%)" offset="0.601562"/><stop stop-opacity="1" stop-color="rgb(100%, 58.656311%, 7.040405%)" offset="0.609375"/><stop stop-opacity="1" stop-color="rgb(100%, 59.046936%, 6.941223%)" offset="0.617188"/><stop stop-opacity="1" stop-color="rgb(100%, 59.436035%, 6.842041%)" offset="0.625"/><stop stop-opacity="1" stop-color="rgb(100%, 59.825134%, 6.742859%)" offset="0.632813"/><stop stop-opacity="1" stop-color="rgb(100%, 60.214233%, 6.643677%)" offset="0.640625"/><stop stop-opacity="1" stop-color="rgb(100%, 60.603333%, 6.544495%)" offset="0.648438"/><stop stop-opacity="1" stop-color="rgb(100%, 60.993958%, 6.445312%)" offset="0.65625"/><stop stop-opacity="1" stop-color="rgb(100%, 61.383057%, 6.34613%)" offset="0.664063"/><stop stop-opacity="1" stop-color="rgb(100%, 61.772156%, 6.246948%)" offset="0.671875"/><stop stop-opacity="1" stop-color="rgb(100%, 62.161255%, 6.147766%)" offset="0.679688"/><stop stop-opacity="1" stop-color="rgb(100%, 62.55188%, 6.048584%)" offset="0.6875"/><stop stop-opacity="1" stop-color="rgb(100%, 62.940979%, 5.949402%)" offset="0.695312"/><stop stop-opacity="1" stop-color="rgb(100%, 63.330078%, 5.85022%)" offset="0.703125"/><stop stop-opacity="1" stop-color="rgb(100%, 63.719177%, 5.751038%)" offset="0.710938"/><stop stop-opacity="1" stop-color="rgb(100%, 64.108276%, 5.651855%)" offset="0.71875"/><stop stop-opacity="1" stop-color="rgb(100%, 64.498901%, 5.552673%)" offset="0.726562"/><stop stop-opacity="1" stop-color="rgb(100%, 64.888%, 5.453491%)" offset="0.734375"/><stop stop-opacity="1" stop-color="rgb(100%, 65.2771%, 5.354309%)" offset="0.742187"/><stop stop-opacity="1" stop-color="rgb(100%, 65.666199%, 5.255127%)" offset="0.75"/><stop stop-opacity="1" stop-color="rgb(100%, 66.056824%, 5.155945%)" offset="0.757812"/><stop stop-opacity="1" stop-color="rgb(100%, 66.445923%, 5.056763%)" offset="0.765625"/><stop stop-opacity="1" stop-color="rgb(100%, 66.835022%, 4.957581%)" offset="0.773437"/><stop stop-opacity="1" stop-color="rgb(100%, 67.224121%, 4.858398%)" offset="0.78125"/><stop stop-opacity="1" stop-color="rgb(100%, 67.61322%, 4.759216%)" offset="0.789062"/><stop stop-opacity="1" stop-color="rgb(100%, 68.003845%, 4.660034%)" offset="0.796875"/><stop stop-opacity="1" stop-color="rgb(100%, 68.392944%, 4.560852%)" offset="0.804688"/><stop stop-opacity="1" stop-color="rgb(100%, 68.782043%, 4.460144%)" offset="0.8125"/><stop stop-opacity="1" stop-color="rgb(100%, 69.171143%, 4.360962%)" offset="0.820313"/><stop stop-opacity="1" stop-color="rgb(100%, 69.560242%, 4.26178%)" offset="0.828125"/><stop stop-opacity="1" stop-color="rgb(100%, 69.950867%, 4.162598%)" offset="0.835938"/><stop stop-opacity="1" stop-color="rgb(100%, 70.339966%, 4.063416%)" offset="0.84375"/><stop stop-opacity="1" stop-color="rgb(100%, 70.729065%, 3.964233%)" offset="0.851563"/><stop stop-opacity="1" stop-color="rgb(100%, 71.118164%, 3.865051%)" offset="0.859375"/><stop stop-opacity="1" stop-color="rgb(100%, 71.508789%, 3.765869%)" offset="0.867188"/><stop stop-opacity="1" stop-color="rgb(100%, 71.897888%, 3.666687%)" offset="0.875"/><stop stop-opacity="1" stop-color="rgb(100%, 72.286987%, 3.567505%)" offset="0.882812"/><stop stop-opacity="1" stop-color="rgb(100%, 72.676086%, 3.468323%)" offset="0.890625"/><stop stop-opacity="1" stop-color="rgb(100%, 73.065186%, 3.369141%)" offset="0.898438"/><stop stop-opacity="1" stop-color="rgb(100%, 73.455811%, 3.269958%)" offset="0.90625"/><stop stop-opacity="1" stop-color="rgb(100%, 73.84491%, 3.170776%)" offset="0.914062"/><stop stop-opacity="1" stop-color="rgb(100%, 74.234009%, 3.071594%)" offset="0.921875"/><stop stop-opacity="1" stop-color="rgb(100%, 74.623108%, 2.972412%)" offset="0.929687"/><stop stop-opacity="1" stop-color="rgb(100%, 75.013733%, 2.87323%)" offset="0.9375"/><stop stop-opacity="1" stop-color="rgb(100%, 75.402832%, 2.774048%)" offset="0.945312"/><stop stop-opacity="1" stop-color="rgb(100%, 75.648499%, 2.711487%)" offset="0.953125"/><stop stop-opacity="1" stop-color="rgb(100%, 75.698853%, 2.69928%)" offset="0.96875"/><stop stop-opacity="1" stop-color="rgb(100%, 75.698853%, 2.69928%)" offset="0.992733"/><stop stop-opacity="1" stop-color="rgb(100%, 75.698853%, 2.69928%)" offset="1"/></linearGradient></defs><g clip-path="url(#88a235fced)"><g clip-path="url(#71c3584b27)"><path fill="url(#4ee7a15960)" d="M 37.5 65.328125 L 37.5 318.171875 L 349.5 318.171875 L 349.5 65.328125 Z M 37.5 65.328125 " fill-rule="nonzero"/></g></g><g fill="#ffc1b2" fill-opacity="0.302"><g transform="translate(143.563051, 344.335375)"><g><path d="M 15.441406 -14.050781 L 15.347656 -14.164062 C 15.082031 -14.425781 14.914062 -14.726562 14.800781 -15.066406 C 14.464844 -16.117188 13.769531 -16.980469 12.753906 -17.65625 C 12.191406 -18.011719 11.550781 -18.296875 10.839844 -18.484375 C 10.125 -18.671875 9.390625 -18.765625 8.601562 -18.765625 C 7.8125 -18.765625 7.042969 -18.652344 6.3125 -18.464844 C 5.578125 -18.277344 4.921875 -17.996094 4.339844 -17.636719 C 3.550781 -17.148438 2.96875 -16.566406 2.554688 -15.871094 C 2.140625 -15.175781 1.953125 -14.425781 1.953125 -13.597656 C 1.953125 -12.023438 2.6875 -10.667969 4.1875 -9.5625 C 4.714844 -9.148438 5.277344 -8.808594 5.898438 -8.507812 C 6.519531 -8.207031 7.15625 -7.90625 7.796875 -7.644531 C 8.171875 -7.457031 8.585938 -7.269531 8.996094 -7.082031 C 9.410156 -6.894531 9.785156 -6.6875 10.125 -6.5 C 10.460938 -6.292969 10.746094 -6.085938 10.96875 -5.878906 C 11.195312 -5.652344 11.308594 -5.445312 11.308594 -5.242188 C 11.308594 -4.976562 11.214844 -4.734375 11.027344 -4.546875 C 10.839844 -4.359375 10.59375 -4.1875 10.3125 -4.074219 C 10.03125 -3.964844 9.730469 -3.871094 9.390625 -3.8125 C 9.054688 -3.738281 8.753906 -3.71875 8.453125 -3.71875 C 8.078125 -3.71875 7.703125 -3.757812 7.289062 -3.851562 C 6.875 -3.925781 6.519531 -4.074219 6.234375 -4.28125 C 6.160156 -4.339844 6.105469 -4.414062 6.105469 -4.507812 C 6.085938 -4.601562 6.105469 -4.675781 6.179688 -4.753906 L 6.199219 -4.769531 C 6.253906 -4.863281 6.253906 -4.957031 6.21875 -5.070312 C 6.160156 -5.183594 6.066406 -5.242188 5.953125 -5.242188 L 1.804688 -5.242188 C 1.671875 -5.242188 1.578125 -5.183594 1.539062 -5.070312 C 1.484375 -4.957031 1.484375 -4.863281 1.558594 -4.769531 L 1.632812 -4.695312 C 1.898438 -4.394531 2.066406 -4.074219 2.179688 -3.757812 C 2.515625 -2.667969 3.191406 -1.804688 4.246094 -1.144531 C 4.808594 -0.769531 5.464844 -0.488281 6.179688 -0.300781 C 6.894531 -0.09375 7.664062 0 8.453125 0 C 9.390625 0 10.273438 -0.132812 11.082031 -0.394531 C 11.890625 -0.65625 12.585938 -1.015625 13.167969 -1.484375 C 13.75 -1.933594 14.199219 -2.5 14.539062 -3.136719 C 14.859375 -3.777344 15.027344 -4.46875 15.027344 -5.242188 C 15.027344 -6.046875 14.839844 -6.761719 14.480469 -7.363281 C 14.125 -7.964844 13.675781 -8.488281 13.109375 -8.941406 C 12.546875 -9.390625 11.945312 -9.765625 11.269531 -10.105469 C 10.59375 -10.445312 9.9375 -10.746094 9.296875 -11.042969 C 8.867188 -11.234375 8.433594 -11.421875 8 -11.628906 C 7.570312 -11.816406 7.175781 -12.023438 6.835938 -12.246094 C 6.5 -12.453125 6.21875 -12.679688 5.992188 -12.90625 C 5.765625 -13.128906 5.671875 -13.355469 5.671875 -13.597656 C 5.671875 -13.804688 5.746094 -13.992188 5.9375 -14.183594 C 6.105469 -14.371094 6.332031 -14.519531 6.613281 -14.652344 C 6.875 -14.765625 7.195312 -14.859375 7.550781 -14.933594 C 7.890625 -15.007812 8.246094 -15.046875 8.601562 -15.046875 C 9.015625 -15.046875 9.429688 -14.988281 9.804688 -14.914062 C 10.179688 -14.820312 10.480469 -14.6875 10.746094 -14.519531 C 10.820312 -14.464844 10.875 -14.386719 10.875 -14.292969 C 10.875 -14.199219 10.855469 -14.125 10.800781 -14.070312 L 10.800781 -14.050781 C 10.726562 -13.9375 10.726562 -13.84375 10.78125 -13.75 C 10.820312 -13.636719 10.914062 -13.597656 11.042969 -13.597656 L 15.195312 -13.597656 C 15.308594 -13.597656 15.402344 -13.636719 15.457031 -13.75 C 15.496094 -13.84375 15.496094 -13.9375 15.441406 -14.050781 Z M 15.441406 -14.050781 "/></g></g></g><g fill="#ffc1b2" fill-opacity="0.302"><g transform="translate(160.562113, 344.335375)"><g><path d="M 16.097656 -18.652344 L 11.945312 -18.652344 C 11.816406 -18.652344 11.722656 -18.597656 11.683594 -18.5 C 11.628906 -18.390625 11.628906 -18.296875 11.703125 -18.203125 C 12.003906 -17.84375 12.171875 -17.449219 12.171875 -17.019531 L 12.171875 -6.066406 C 12.171875 -5.484375 12.023438 -5.035156 11.757812 -4.734375 C 11.496094 -4.414062 11.195312 -4.1875 10.855469 -4.039062 C 10.519531 -3.886719 10.199219 -3.792969 9.898438 -3.757812 C 9.597656 -3.71875 9.410156 -3.71875 9.335938 -3.71875 C 9.261719 -3.71875 9.054688 -3.71875 8.753906 -3.757812 C 8.453125 -3.792969 8.132812 -3.886719 7.796875 -4.039062 C 7.457031 -4.1875 7.15625 -4.414062 6.894531 -4.734375 C 6.628906 -5.035156 6.5 -5.484375 6.5 -6.066406 L 6.5 -17.019531 C 6.5 -17.46875 6.648438 -17.863281 6.949219 -18.203125 C 7.007812 -18.296875 7.007812 -18.390625 6.96875 -18.5 C 6.914062 -18.597656 6.820312 -18.652344 6.707031 -18.652344 L 2.554688 -18.652344 C 2.421875 -18.652344 2.328125 -18.597656 2.292969 -18.5 C 2.234375 -18.390625 2.234375 -18.296875 2.308594 -18.203125 C 2.609375 -17.863281 2.761719 -17.46875 2.761719 -17.019531 L 2.761719 -6.066406 C 2.761719 -5.128906 2.949219 -4.265625 3.324219 -3.476562 C 3.699219 -2.6875 4.226562 -2.011719 4.941406 -1.445312 C 5.542969 -0.957031 6.21875 -0.601562 6.96875 -0.355469 C 7.71875 -0.09375 8.507812 0.0195312 9.335938 0.0195312 C 10.160156 0.0195312 10.933594 -0.09375 11.683594 -0.355469 C 12.433594 -0.601562 13.109375 -0.957031 13.710938 -1.445312 C 14.425781 -2.011719 14.953125 -2.6875 15.328125 -3.476562 C 15.703125 -4.265625 15.890625 -5.128906 15.890625 -6.066406 L 15.890625 -17.019531 C 15.890625 -17.429688 16.042969 -17.824219 16.339844 -18.203125 C 16.417969 -18.296875 16.417969 -18.390625 16.359375 -18.5 C 16.304688 -18.597656 16.210938 -18.652344 16.097656 -18.652344 Z M 16.097656 -18.652344 "/></g></g></g><g fill="#ffc1b2" fill-opacity="0.302"><g transform="translate(179.232906, 344.335375)"><g><path d="M 20.34375 -1.578125 L 20.34375 -17.09375 C 20.34375 -17.507812 20.472656 -17.882812 20.773438 -18.203125 C 20.851562 -18.296875 20.867188 -18.390625 20.832031 -18.5 C 20.773438 -18.613281 20.699219 -18.671875 20.585938 -18.671875 L 16.625 -18.671875 L 16.605469 -18.652344 L 16.605469 -18.671875 L 16.097656 -18.671875 C 15.964844 -18.671875 15.871094 -18.613281 15.835938 -18.5 C 15.777344 -18.390625 15.777344 -18.296875 15.851562 -18.203125 C 15.929688 -18.089844 15.910156 -18.011719 15.835938 -17.957031 L 11.964844 -14.386719 C 11.832031 -14.277344 11.683594 -14.238281 11.53125 -14.238281 C 11.382812 -14.238281 11.25 -14.277344 11.140625 -14.386719 L 7.214844 -17.996094 C 7.136719 -18.050781 7.136719 -18.109375 7.214844 -18.183594 C 7.289062 -18.277344 7.308594 -18.390625 7.269531 -18.5 C 7.214844 -18.613281 7.117188 -18.671875 6.988281 -18.671875 L 2.554688 -18.671875 C 2.421875 -18.671875 2.328125 -18.613281 2.292969 -18.5 C 2.234375 -18.390625 2.234375 -18.296875 2.308594 -18.203125 L 2.328125 -18.183594 C 2.609375 -17.863281 2.761719 -17.488281 2.761719 -17.074219 L 2.761719 -1.597656 C 2.761719 -1.164062 2.609375 -0.789062 2.328125 -0.488281 L 2.308594 -0.46875 C 2.234375 -0.355469 2.234375 -0.261719 2.292969 -0.148438 C 2.328125 -0.0390625 2.421875 0 2.554688 0 L 6.707031 0 C 6.820312 0 6.914062 -0.0390625 6.96875 -0.148438 C 7.007812 -0.261719 7.007812 -0.355469 6.949219 -0.46875 L 6.914062 -0.507812 C 6.613281 -0.808594 6.480469 -1.183594 6.480469 -1.617188 L 6.480469 -13 C 6.480469 -13.109375 6.519531 -13.1875 6.628906 -13.222656 C 6.742188 -13.261719 6.835938 -13.261719 6.929688 -13.1875 L 11.140625 -9.277344 C 11.25 -9.167969 11.382812 -9.109375 11.550781 -9.109375 C 11.703125 -9.109375 11.851562 -9.167969 11.964844 -9.277344 L 16.171875 -13.1875 C 16.246094 -13.261719 16.339844 -13.261719 16.453125 -13.222656 C 16.566406 -13.1875 16.625 -13.109375 16.625 -13 L 16.625 -1.632812 C 16.625 -1.222656 16.472656 -0.84375 16.171875 -0.527344 L 16.136719 -0.46875 C 16.058594 -0.355469 16.058594 -0.261719 16.117188 -0.148438 C 16.152344 -0.0390625 16.246094 0 16.378906 0 L 20.585938 0 C 20.699219 0 20.773438 -0.0390625 20.832031 -0.148438 C 20.867188 -0.261719 20.851562 -0.355469 20.773438 -0.46875 C 20.472656 -0.769531 20.34375 -1.144531 20.34375 -1.578125 Z M 20.34375 -1.578125 "/></g></g></g><g fill="#ffc1b2" fill-opacity="0.302"><g transform="translate(202.336605, 344.335375)"><g/></g></g><g fill="#ffc1b2" fill-opacity="0.302"><g transform="translate(213.606702, 344.335375)"><g><path d="M 17.09375 -0.339844 C 17.09375 -0.414062 17.054688 -0.46875 17 -0.507812 C 16.566406 -0.863281 16.285156 -1.316406 16.136719 -1.878906 L 11.644531 -17.394531 C 11.550781 -17.695312 11.609375 -17.976562 11.832031 -18.203125 C 11.890625 -18.296875 11.890625 -18.390625 11.851562 -18.5 C 11.796875 -18.613281 11.703125 -18.671875 11.589844 -18.671875 L 6.628906 -18.671875 C 6.519531 -18.671875 6.425781 -18.613281 6.367188 -18.5 C 6.3125 -18.390625 6.3125 -18.296875 6.386719 -18.203125 C 6.613281 -17.976562 6.667969 -17.695312 6.574219 -17.394531 L 2.105469 -1.859375 C 1.953125 -1.332031 1.652344 -0.882812 1.222656 -0.507812 C 1.164062 -0.449219 1.128906 -0.394531 1.128906 -0.339844 C 1.109375 -0.246094 1.128906 -0.167969 1.183594 -0.09375 C 1.238281 -0.0195312 1.316406 0 1.425781 0 L 5.785156 0 C 5.898438 0 5.992188 -0.0390625 6.03125 -0.148438 C 6.066406 -0.261719 6.066406 -0.355469 5.992188 -0.449219 C 5.765625 -0.675781 5.710938 -0.957031 5.785156 -1.257812 L 6.367188 -3.210938 C 6.425781 -3.417969 6.535156 -3.585938 6.707031 -3.699219 C 6.855469 -3.8125 7.042969 -3.886719 7.269531 -3.886719 L 10.96875 -3.886719 C 11.175781 -3.886719 11.363281 -3.8125 11.53125 -3.699219 C 11.683594 -3.585938 11.796875 -3.417969 11.871094 -3.210938 L 12.433594 -1.257812 C 12.511719 -0.957031 12.433594 -0.695312 12.246094 -0.46875 L 12.246094 -0.449219 C 12.171875 -0.339844 12.171875 -0.246094 12.226562 -0.148438 C 12.265625 -0.0390625 12.359375 0 12.492188 0 L 16.8125 0 C 16.90625 0 16.980469 -0.0195312 17.035156 -0.09375 C 17.09375 -0.167969 17.113281 -0.246094 17.09375 -0.339844 Z M 10.332031 -7.605469 L 7.90625 -7.605469 C 7.832031 -7.605469 7.777344 -7.625 7.738281 -7.683594 C 7.683594 -7.738281 7.664062 -7.8125 7.703125 -7.890625 L 8.921875 -12.078125 C 8.941406 -12.171875 8.996094 -12.226562 9.109375 -12.226562 C 9.222656 -12.226562 9.277344 -12.171875 9.316406 -12.078125 L 10.519531 -7.890625 C 10.539062 -7.8125 10.519531 -7.738281 10.480469 -7.683594 C 10.445312 -7.625 10.386719 -7.605469 10.332031 -7.605469 Z M 10.332031 -7.605469 "/></g></g></g><g fill="#ffc1b2" fill-opacity="0.302"><g transform="translate(231.845475, 344.335375)"><g><path d="M 2.253906 0.28125 L 5.878906 0.28125 L 5.878906 -3.230469 L 2.253906 -3.230469 Z M 2.253906 0.28125 "/></g></g></g><g fill="#ffc1b2" fill-opacity="0.302"><g transform="translate(239.978724, 344.335375)"><g><path d="M 6.5 -1.652344 L 6.5 -17.019531 C 6.5 -17.46875 6.648438 -17.863281 6.949219 -18.203125 C 7.007812 -18.296875 7.007812 -18.390625 6.96875 -18.5 C 6.914062 -18.613281 6.820312 -18.671875 6.707031 -18.671875 L 2.554688 -18.671875 C 2.421875 -18.671875 2.328125 -18.613281 2.292969 -18.5 C 2.234375 -18.390625 2.234375 -18.296875 2.308594 -18.203125 C 2.609375 -17.863281 2.78125 -17.46875 2.78125 -17.019531 L 2.78125 -1.652344 C 2.78125 -1.203125 2.609375 -0.808594 2.308594 -0.46875 C 2.234375 -0.355469 2.234375 -0.261719 2.292969 -0.148438 C 2.328125 -0.0390625 2.421875 0 2.554688 0 L 6.707031 0 C 6.820312 0 6.914062 -0.0390625 6.96875 -0.148438 C 7.007812 -0.261719 7.007812 -0.355469 6.949219 -0.46875 C 6.800781 -0.621094 6.6875 -0.808594 6.613281 -1.015625 C 6.535156 -1.222656 6.5 -1.425781 6.5 -1.652344 Z M 6.5 -1.652344 "/></g></g></g><g fill="#ffc1b2" fill-opacity="0.502"><g transform="translate(144.060185, 344.546402)"><g><path d="M 15.441406 -14.050781 L 15.347656 -14.164062 C 15.082031 -14.425781 14.914062 -14.726562 14.800781 -15.066406 C 14.464844 -16.117188 13.769531 -16.980469 12.753906 -17.65625 C 12.191406 -18.011719 11.550781 -18.296875 10.839844 -18.484375 C 10.125 -18.671875 9.390625 -18.765625 8.601562 -18.765625 C 7.8125 -18.765625 7.042969 -18.652344 6.3125 -18.464844 C 5.578125 -18.277344 4.921875 -17.996094 4.339844 -17.636719 C 3.550781 -17.148438 2.96875 -16.566406 2.554688 -15.871094 C 2.140625 -15.175781 1.953125 -14.425781 1.953125 -13.597656 C 1.953125 -12.023438 2.6875 -10.667969 4.1875 -9.5625 C 4.714844 -9.148438 5.277344 -8.808594 5.898438 -8.507812 C 6.519531 -8.207031 7.15625 -7.90625 7.796875 -7.644531 C 8.171875 -7.457031 8.585938 -7.269531 8.996094 -7.082031 C 9.410156 -6.894531 9.785156 -6.6875 10.125 -6.5 C 10.460938 -6.292969 10.746094 -6.085938 10.96875 -5.878906 C 11.195312 -5.652344 11.308594 -5.445312 11.308594 -5.242188 C 11.308594 -4.976562 11.214844 -4.734375 11.027344 -4.546875 C 10.839844 -4.359375 10.59375 -4.1875 10.3125 -4.074219 C 10.03125 -3.964844 9.730469 -3.871094 9.390625 -3.8125 C 9.054688 -3.738281 8.753906 -3.71875 8.453125 -3.71875 C 8.078125 -3.71875 7.703125 -3.757812 7.289062 -3.851562 C 6.875 -3.925781 6.519531 -4.074219 6.234375 -4.28125 C 6.160156 -4.339844 6.105469 -4.414062 6.105469 -4.507812 C 6.085938 -4.601562 6.105469 -4.675781 6.179688 -4.753906 L 6.199219 -4.769531 C 6.253906 -4.863281 6.253906 -4.957031 6.21875 -5.070312 C 6.160156 -5.183594 6.066406 -5.242188 5.953125 -5.242188 L 1.804688 -5.242188 C 1.671875 -5.242188 1.578125 -5.183594 1.539062 -5.070312 C 1.484375 -4.957031 1.484375 -4.863281 1.558594 -4.769531 L 1.632812 -4.695312 C 1.898438 -4.394531 2.066406 -4.074219 2.179688 -3.757812 C 2.515625 -2.667969 3.191406 -1.804688 4.246094 -1.144531 C 4.808594 -0.769531 5.464844 -0.488281 6.179688 -0.300781 C 6.894531 -0.09375 7.664062 0 8.453125 0 C 9.390625 0 10.273438 -0.132812 11.082031 -0.394531 C 11.890625 -0.65625 12.585938 -1.015625 13.167969 -1.484375 C 13.75 -1.933594 14.199219 -2.5 14.539062 -3.136719 C 14.859375 -3.777344 15.027344 -4.46875 15.027344 -5.242188 C 15.027344 -6.046875 14.839844 -6.761719 14.480469 -7.363281 C 14.125 -7.964844 13.675781 -8.488281 13.109375 -8.941406 C 12.546875 -9.390625 11.945312 -9.765625 11.269531 -10.105469 C 10.59375 -10.445312 9.9375 -10.746094 9.296875 -11.042969 C 8.867188 -11.234375 8.433594 -11.421875 8 -11.628906 C 7.570312 -11.816406 7.175781 -12.023438 6.835938 -12.246094 C 6.5 -12.453125 6.21875 -12.679688 5.992188 -12.90625 C 5.765625 -13.128906 5.671875 -13.355469 5.671875 -13.597656 C 5.671875 -13.804688 5.746094 -13.992188 5.9375 -14.183594 C 6.105469 -14.371094 6.332031 -14.519531 6.613281 -14.652344 C 6.875 -14.765625 7.195312 -14.859375 7.550781 -14.933594 C 7.890625 -15.007812 8.246094 -15.046875 8.601562 -15.046875 C 9.015625 -15.046875 9.429688 -14.988281 9.804688 -14.914062 C 10.179688 -14.820312 10.480469 -14.6875 10.746094 -14.519531 C 10.820312 -14.464844 10.875 -14.386719 10.875 -14.292969 C 10.875 -14.199219 10.855469 -14.125 10.800781 -14.070312 L 10.800781 -14.050781 C 10.726562 -13.9375 10.726562 -13.84375 10.78125 -13.75 C 10.820312 -13.636719 10.914062 -13.597656 11.042969 -13.597656 L 15.195312 -13.597656 C 15.308594 -13.597656 15.402344 -13.636719 15.457031 -13.75 C 15.496094 -13.84375 15.496094 -13.9375 15.441406 -14.050781 Z M 15.441406 -14.050781 "/></g></g></g><g fill="#ffc1b2" fill-opacity="0.502"><g transform="translate(161.059247, 344.546402)"><g><path d="M 16.097656 -18.652344 L 11.945312 -18.652344 C 11.816406 -18.652344 11.722656 -18.597656 11.683594 -18.5 C 11.628906 -18.390625 11.628906 -18.296875 11.703125 -18.203125 C 12.003906 -17.84375 12.171875 -17.449219 12.171875 -17.019531 L 12.171875 -6.066406 C 12.171875 -5.484375 12.023438 -5.035156 11.757812 -4.734375 C 11.496094 -4.414062 11.195312 -4.1875 10.855469 -4.039062 C 10.519531 -3.886719 10.199219 -3.792969 9.898438 -3.757812 C 9.597656 -3.71875 9.410156 -3.71875 9.335938 -3.71875 C 9.261719 -3.71875 9.054688 -3.71875 8.753906 -3.757812 C 8.453125 -3.792969 8.132812 -3.886719 7.796875 -4.039062 C 7.457031 -4.1875 7.15625 -4.414062 6.894531 -4.734375 C 6.628906 -5.035156 6.5 -5.484375 6.5 -6.066406 L 6.5 -17.019531 C 6.5 -17.46875 6.648438 -17.863281 6.949219 -18.203125 C 7.007812 -18.296875 7.007812 -18.390625 6.96875 -18.5 C 6.914062 -18.597656 6.820312 -18.652344 6.707031 -18.652344 L 2.554688 -18.652344 C 2.421875 -18.652344 2.328125 -18.597656 2.292969 -18.5 C 2.234375 -18.390625 2.234375 -18.296875 2.308594 -18.203125 C 2.609375 -17.863281 2.761719 -17.46875 2.761719 -17.019531 L 2.761719 -6.066406 C 2.761719 -5.128906 2.949219 -4.265625 3.324219 -3.476562 C 3.699219 -2.6875 4.226562 -2.011719 4.941406 -1.445312 C 5.542969 -0.957031 6.21875 -0.601562 6.96875 -0.355469 C 7.71875 -0.09375 8.507812 0.0195312 9.335938 0.0195312 C 10.160156 0.0195312 10.933594 -0.09375 11.683594 -0.355469 C 12.433594 -0.601562 13.109375 -0.957031 13.710938 -1.445312 C 14.425781 -2.011719 14.953125 -2.6875 15.328125 -3.476562 C 15.703125 -4.265625 15.890625 -5.128906 15.890625 -6.066406 L 15.890625 -17.019531 C 15.890625 -17.429688 16.042969 -17.824219 16.339844 -18.203125 C 16.417969 -18.296875 16.417969 -18.390625 16.359375 -18.5 C 16.304688 -18.597656 16.210938 -18.652344 16.097656 -18.652344 Z M 16.097656 -18.652344 "/></g></g></g><g fill="#ffc1b2" fill-opacity="0.502"><g transform="translate(179.73004, 344.546402)"><g><path d="M 20.34375 -1.578125 L 20.34375 -17.09375 C 20.34375 -17.507812 20.472656 -17.882812 20.773438 -18.203125 C 20.851562 -18.296875 20.867188 -18.390625 20.832031 -18.5 C 20.773438 -18.613281 20.699219 -18.671875 20.585938 -18.671875 L 16.625 -18.671875 L 16.605469 -18.652344 L 16.605469 -18.671875 L 16.097656 -18.671875 C 15.964844 -18.671875 15.871094 -18.613281 15.835938 -18.5 C 15.777344 -18.390625 15.777344 -18.296875 15.851562 -18.203125 C 15.929688 -18.089844 15.910156 -18.011719 15.835938 -17.957031 L 11.964844 -14.386719 C 11.832031 -14.277344 11.683594 -14.238281 11.53125 -14.238281 C 11.382812 -14.238281 11.25 -14.277344 11.140625 -14.386719 L 7.214844 -17.996094 C 7.136719 -18.050781 7.136719 -18.109375 7.214844 -18.183594 C 7.289062 -18.277344 7.308594 -18.390625 7.269531 -18.5 C 7.214844 -18.613281 7.117188 -18.671875 6.988281 -18.671875 L 2.554688 -18.671875 C 2.421875 -18.671875 2.328125 -18.613281 2.292969 -18.5 C 2.234375 -18.390625 2.234375 -18.296875 2.308594 -18.203125 L 2.328125 -18.183594 C 2.609375 -17.863281 2.761719 -17.488281 2.761719 -17.074219 L 2.761719 -1.597656 C 2.761719 -1.164062 2.609375 -0.789062 2.328125 -0.488281 L 2.308594 -0.46875 C 2.234375 -0.355469 2.234375 -0.261719 2.292969 -0.148438 C 2.328125 -0.0390625 2.421875 0 2.554688 0 L 6.707031 0 C 6.820312 0 6.914062 -0.0390625 6.96875 -0.148438 C 7.007812 -0.261719 7.007812 -0.355469 6.949219 -0.46875 L 6.914062 -0.507812 C 6.613281 -0.808594 6.480469 -1.183594 6.480469 -1.617188 L 6.480469 -13 C 6.480469 -13.109375 6.519531 -13.1875 6.628906 -13.222656 C 6.742188 -13.261719 6.835938 -13.261719 6.929688 -13.1875 L 11.140625 -9.277344 C 11.25 -9.167969 11.382812 -9.109375 11.550781 -9.109375 C 11.703125 -9.109375 11.851562 -9.167969 11.964844 -9.277344 L 16.171875 -13.1875 C 16.246094 -13.261719 16.339844 -13.261719 16.453125 -13.222656 C 16.566406 -13.1875 16.625 -13.109375 16.625 -13 L 16.625 -1.632812 C 16.625 -1.222656 16.472656 -0.84375 16.171875 -0.527344 L 16.136719 -0.46875 C 16.058594 -0.355469 16.058594 -0.261719 16.117188 -0.148438 C 16.152344 -0.0390625 16.246094 0 16.378906 0 L 20.585938 0 C 20.699219 0 20.773438 -0.0390625 20.832031 -0.148438 C 20.867188 -0.261719 20.851562 -0.355469 20.773438 -0.46875 C 20.472656 -0.769531 20.34375 -1.144531 20.34375 -1.578125 Z M 20.34375 -1.578125 "/></g></g></g><g fill="#ffc1b2" fill-opacity="0.502"><g transform="translate(202.833738, 344.546402)"><g/></g></g><g fill="#ffc1b2" fill-opacity="0.502"><g transform="translate(214.103836, 344.546402)"><g><path d="M 17.09375 -0.339844 C 17.09375 -0.414062 17.054688 -0.46875 17 -0.507812 C 16.566406 -0.863281 16.285156 -1.316406 16.136719 -1.878906 L 11.644531 -17.394531 C 11.550781 -17.695312 11.609375 -17.976562 11.832031 -18.203125 C 11.890625 -18.296875 11.890625 -18.390625 11.851562 -18.5 C 11.796875 -18.613281 11.703125 -18.671875 11.589844 -18.671875 L 6.628906 -18.671875 C 6.519531 -18.671875 6.425781 -18.613281 6.367188 -18.5 C 6.3125 -18.390625 6.3125 -18.296875 6.386719 -18.203125 C 6.613281 -17.976562 6.667969 -17.695312 6.574219 -17.394531 L 2.105469 -1.859375 C 1.953125 -1.332031 1.652344 -0.882812 1.222656 -0.507812 C 1.164062 -0.449219 1.128906 -0.394531 1.128906 -0.339844 C 1.109375 -0.246094 1.128906 -0.167969 1.183594 -0.09375 C 1.238281 -0.0195312 1.316406 0 1.425781 0 L 5.785156 0 C 5.898438 0 5.992188 -0.0390625 6.03125 -0.148438 C 6.066406 -0.261719 6.066406 -0.355469 5.992188 -0.449219 C 5.765625 -0.675781 5.710938 -0.957031 5.785156 -1.257812 L 6.367188 -3.210938 C 6.425781 -3.417969 6.535156 -3.585938 6.707031 -3.699219 C 6.855469 -3.8125 7.042969 -3.886719 7.269531 -3.886719 L 10.96875 -3.886719 C 11.175781 -3.886719 11.363281 -3.8125 11.53125 -3.699219 C 11.683594 -3.585938 11.796875 -3.417969 11.871094 -3.210938 L 12.433594 -1.257812 C 12.511719 -0.957031 12.433594 -0.695312 12.246094 -0.46875 L 12.246094 -0.449219 C 12.171875 -0.339844 12.171875 -0.246094 12.226562 -0.148438 C 12.265625 -0.0390625 12.359375 0 12.492188 0 L 16.8125 0 C 16.90625 0 16.980469 -0.0195312 17.035156 -0.09375 C 17.09375 -0.167969 17.113281 -0.246094 17.09375 -0.339844 Z M 10.332031 -7.605469 L 7.90625 -7.605469 C 7.832031 -7.605469 7.777344 -7.625 7.738281 -7.683594 C 7.683594 -7.738281 7.664062 -7.8125 7.703125 -7.890625 L 8.921875 -12.078125 C 8.941406 -12.171875 8.996094 -12.226562 9.109375 -12.226562 C 9.222656 -12.226562 9.277344 -12.171875 9.316406 -12.078125 L 10.519531 -7.890625 C 10.539062 -7.8125 10.519531 -7.738281 10.480469 -7.683594 C 10.445312 -7.625 10.386719 -7.605469 10.332031 -7.605469 Z M 10.332031 -7.605469 "/></g></g></g><g fill="#ffc1b2" fill-opacity="0.502"><g transform="translate(232.342608, 344.546402)"><g><path d="M 2.253906 0.28125 L 5.878906 0.28125 L 5.878906 -3.230469 L 2.253906 -3.230469 Z M 2.253906 0.28125 "/></g></g></g><g fill="#ffc1b2" fill-opacity="0.502"><g transform="translate(240.475858, 344.546402)"><g><path d="M 6.5 -1.652344 L 6.5 -17.019531 C 6.5 -17.46875 6.648438 -17.863281 6.949219 -18.203125 C 7.007812 -18.296875 7.007812 -18.390625 6.96875 -18.5 C 6.914062 -18.613281 6.820312 -18.671875 6.707031 -18.671875 L 2.554688 -18.671875 C 2.421875 -18.671875 2.328125 -18.613281 2.292969 -18.5 C 2.234375 -18.390625 2.234375 -18.296875 2.308594 -18.203125 C 2.609375 -17.863281 2.78125 -17.46875 2.78125 -17.019531 L 2.78125 -1.652344 C 2.78125 -1.203125 2.609375 -0.808594 2.308594 -0.46875 C 2.234375 -0.355469 2.234375 -0.261719 2.292969 -0.148438 C 2.328125 -0.0390625 2.421875 0 2.554688 0 L 6.707031 0 C 6.820312 0 6.914062 -0.0390625 6.96875 -0.148438 C 7.007812 -0.261719 7.007812 -0.355469 6.949219 -0.46875 C 6.800781 -0.621094 6.6875 -0.808594 6.613281 -1.015625 C 6.535156 -1.222656 6.5 -1.425781 6.5 -1.652344 Z M 6.5 -1.652344 "/></g></g></g><g fill="#0d0d0d" fill-opacity="1"><g transform="translate(144.557316, 344.757427)"><g><path d="M 15.441406 -14.050781 L 15.347656 -14.164062 C 15.082031 -14.425781 14.914062 -14.726562 14.800781 -15.066406 C 14.464844 -16.117188 13.769531 -16.980469 12.753906 -17.65625 C 12.191406 -18.011719 11.550781 -18.296875 10.839844 -18.484375 C 10.125 -18.671875 9.390625 -18.765625 8.601562 -18.765625 C 7.8125 -18.765625 7.042969 -18.652344 6.3125 -18.464844 C 5.578125 -18.277344 4.921875 -17.996094 4.339844 -17.636719 C 3.550781 -17.148438 2.96875 -16.566406 2.554688 -15.871094 C 2.140625 -15.175781 1.953125 -14.425781 1.953125 -13.597656 C 1.953125 -12.023438 2.6875 -10.667969 4.1875 -9.5625 C 4.714844 -9.148438 5.277344 -8.808594 5.898438 -8.507812 C 6.519531 -8.207031 7.15625 -7.90625 7.796875 -7.644531 C 8.171875 -7.457031 8.585938 -7.269531 8.996094 -7.082031 C 9.410156 -6.894531 9.785156 -6.6875 10.125 -6.5 C 10.460938 -6.292969 10.746094 -6.085938 10.96875 -5.878906 C 11.195312 -5.652344 11.308594 -5.445312 11.308594 -5.242188 C 11.308594 -4.976562 11.214844 -4.734375 11.027344 -4.546875 C 10.839844 -4.359375 10.59375 -4.1875 10.3125 -4.074219 C 10.03125 -3.964844 9.730469 -3.871094 9.390625 -3.8125 C 9.054688 -3.738281 8.753906 -3.71875 8.453125 -3.71875 C 8.078125 -3.71875 7.703125 -3.757812 7.289062 -3.851562 C 6.875 -3.925781 6.519531 -4.074219 6.234375 -4.28125 C 6.160156 -4.339844 6.105469 -4.414062 6.105469 -4.507812 C 6.085938 -4.601562 6.105469 -4.675781 6.179688 -4.753906 L 6.199219 -4.769531 C 6.253906 -4.863281 6.253906 -4.957031 6.21875 -5.070312 C 6.160156 -5.183594 6.066406 -5.242188 5.953125 -5.242188 L 1.804688 -5.242188 C 1.671875 -5.242188 1.578125 -5.183594 1.539062 -5.070312 C 1.484375 -4.957031 1.484375 -4.863281 1.558594 -4.769531 L 1.632812 -4.695312 C 1.898438 -4.394531 2.066406 -4.074219 2.179688 -3.757812 C 2.515625 -2.667969 3.191406 -1.804688 4.246094 -1.144531 C 4.808594 -0.769531 5.464844 -0.488281 6.179688 -0.300781 C 6.894531 -0.09375 7.664062 0 8.453125 0 C 9.390625 0 10.273438 -0.132812 11.082031 -0.394531 C 11.890625 -0.65625 12.585938 -1.015625 13.167969 -1.484375 C 13.75 -1.933594 14.199219 -2.5 14.539062 -3.136719 C 14.859375 -3.777344 15.027344 -4.46875 15.027344 -5.242188 C 15.027344 -6.046875 14.839844 -6.761719 14.480469 -7.363281 C 14.125 -7.964844 13.675781 -8.488281 13.109375 -8.941406 C 12.546875 -9.390625 11.945312 -9.765625 11.269531 -10.105469 C 10.59375 -10.445312 9.9375 -10.746094 9.296875 -11.042969 C 8.867188 -11.234375 8.433594 -11.421875 8 -11.628906 C 7.570312 -11.816406 7.175781 -12.023438 6.835938 -12.246094 C 6.5 -12.453125 6.21875 -12.679688 5.992188 -12.90625 C 5.765625 -13.128906 5.671875 -13.355469 5.671875 -13.597656 C 5.671875 -13.804688 5.746094 -13.992188 5.9375 -14.183594 C 6.105469 -14.371094 6.332031 -14.519531 6.613281 -14.652344 C 6.875 -14.765625 7.195312 -14.859375 7.550781 -14.933594 C 7.890625 -15.007812 8.246094 -15.046875 8.601562 -15.046875 C 9.015625 -15.046875 9.429688 -14.988281 9.804688 -14.914062 C 10.179688 -14.820312 10.480469 -14.6875 10.746094 -14.519531 C 10.820312 -14.464844 10.875 -14.386719 10.875 -14.292969 C 10.875 -14.199219 10.855469 -14.125 10.800781 -14.070312 L 10.800781 -14.050781 C 10.726562 -13.9375 10.726562 -13.84375 10.78125 -13.75 C 10.820312 -13.636719 10.914062 -13.597656 11.042969 -13.597656 L 15.195312 -13.597656 C 15.308594 -13.597656 15.402344 -13.636719 15.457031 -13.75 C 15.496094 -13.84375 15.496094 -13.9375 15.441406 -14.050781 Z M 15.441406 -14.050781 "/></g></g></g><g fill="#0d0d0d" fill-opacity="1"><g transform="translate(161.556378, 344.757427)"><g><path d="M 16.097656 -18.652344 L 11.945312 -18.652344 C 11.816406 -18.652344 11.722656 -18.597656 11.683594 -18.5 C 11.628906 -18.390625 11.628906 -18.296875 11.703125 -18.203125 C 12.003906 -17.84375 12.171875 -17.449219 12.171875 -17.019531 L 12.171875 -6.066406 C 12.171875 -5.484375 12.023438 -5.035156 11.757812 -4.734375 C 11.496094 -4.414062 11.195312 -4.1875 10.855469 -4.039062 C 10.519531 -3.886719 10.199219 -3.792969 9.898438 -3.757812 C 9.597656 -3.71875 9.410156 -3.71875 9.335938 -3.71875 C 9.261719 -3.71875 9.054688 -3.71875 8.753906 -3.757812 C 8.453125 -3.792969 8.132812 -3.886719 7.796875 -4.039062 C 7.457031 -4.1875 7.15625 -4.414062 6.894531 -4.734375 C 6.628906 -5.035156 6.5 -5.484375 6.5 -6.066406 L 6.5 -17.019531 C 6.5 -17.46875 6.648438 -17.863281 6.949219 -18.203125 C 7.007812 -18.296875 7.007812 -18.390625 6.96875 -18.5 C 6.914062 -18.597656 6.820312 -18.652344 6.707031 -18.652344 L 2.554688 -18.652344 C 2.421875 -18.652344 2.328125 -18.597656 2.292969 -18.5 C 2.234375 -18.390625 2.234375 -18.296875 2.308594 -18.203125 C 2.609375 -17.863281 2.761719 -17.46875 2.761719 -17.019531 L 2.761719 -6.066406 C 2.761719 -5.128906 2.949219 -4.265625 3.324219 -3.476562 C 3.699219 -2.6875 4.226562 -2.011719 4.941406 -1.445312 C 5.542969 -0.957031 6.21875 -0.601562 6.96875 -0.355469 C 7.71875 -0.09375 8.507812 0.0195312 9.335938 0.0195312 C 10.160156 0.0195312 10.933594 -0.09375 11.683594 -0.355469 C 12.433594 -0.601562 13.109375 -0.957031 13.710938 -1.445312 C 14.425781 -2.011719 14.953125 -2.6875 15.328125 -3.476562 C 15.703125 -4.265625 15.890625 -5.128906 15.890625 -6.066406 L 15.890625 -17.019531 C 15.890625 -17.429688 16.042969 -17.824219 16.339844 -18.203125 C 16.417969 -18.296875 16.417969 -18.390625 16.359375 -18.5 C 16.304688 -18.597656 16.210938 -18.652344 16.097656 -18.652344 Z M 16.097656 -18.652344 "/></g></g></g><g fill="#0d0d0d" fill-opacity="1"><g transform="translate(180.227171, 344.757427)"><g><path d="M 20.34375 -1.578125 L 20.34375 -17.09375 C 20.34375 -17.507812 20.472656 -17.882812 20.773438 -18.203125 C 20.851562 -18.296875 20.867188 -18.390625 20.832031 -18.5 C 20.773438 -18.613281 20.699219 -18.671875 20.585938 -18.671875 L 16.625 -18.671875 L 16.605469 -18.652344 L 16.605469 -18.671875 L 16.097656 -18.671875 C 15.964844 -18.671875 15.871094 -18.613281 15.835938 -18.5 C 15.777344 -18.390625 15.777344 -18.296875 15.851562 -18.203125 C 15.929688 -18.089844 15.910156 -18.011719 15.835938 -17.957031 L 11.964844 -14.386719 C 11.832031 -14.277344 11.683594 -14.238281 11.53125 -14.238281 C 11.382812 -14.238281 11.25 -14.277344 11.140625 -14.386719 L 7.214844 -17.996094 C 7.136719 -18.050781 7.136719 -18.109375 7.214844 -18.183594 C 7.289062 -18.277344 7.308594 -18.390625 7.269531 -18.5 C 7.214844 -18.613281 7.117188 -18.671875 6.988281 -18.671875 L 2.554688 -18.671875 C 2.421875 -18.671875 2.328125 -18.613281 2.292969 -18.5 C 2.234375 -18.390625 2.234375 -18.296875 2.308594 -18.203125 L 2.328125 -18.183594 C 2.609375 -17.863281 2.761719 -17.488281 2.761719 -17.074219 L 2.761719 -1.597656 C 2.761719 -1.164062 2.609375 -0.789062 2.328125 -0.488281 L 2.308594 -0.46875 C 2.234375 -0.355469 2.234375 -0.261719 2.292969 -0.148438 C 2.328125 -0.0390625 2.421875 0 2.554688 0 L 6.707031 0 C 6.820312 0 6.914062 -0.0390625 6.96875 -0.148438 C 7.007812 -0.261719 7.007812 -0.355469 6.949219 -0.46875 L 6.914062 -0.507812 C 6.613281 -0.808594 6.480469 -1.183594 6.480469 -1.617188 L 6.480469 -13 C 6.480469 -13.109375 6.519531 -13.1875 6.628906 -13.222656 C 6.742188 -13.261719 6.835938 -13.261719 6.929688 -13.1875 L 11.140625 -9.277344 C 11.25 -9.167969 11.382812 -9.109375 11.550781 -9.109375 C 11.703125 -9.109375 11.851562 -9.167969 11.964844 -9.277344 L 16.171875 -13.1875 C 16.246094 -13.261719 16.339844 -13.261719 16.453125 -13.222656 C 16.566406 -13.1875 16.625 -13.109375 16.625 -13 L 16.625 -1.632812 C 16.625 -1.222656 16.472656 -0.84375 16.171875 -0.527344 L 16.136719 -0.46875 C 16.058594 -0.355469 16.058594 -0.261719 16.117188 -0.148438 C 16.152344 -0.0390625 16.246094 0 16.378906 0 L 20.585938 0 C 20.699219 0 20.773438 -0.0390625 20.832031 -0.148438 C 20.867188 -0.261719 20.851562 -0.355469 20.773438 -0.46875 C 20.472656 -0.769531 20.34375 -1.144531 20.34375 -1.578125 Z M 20.34375 -1.578125 "/></g></g></g><g fill="#0d0d0d" fill-opacity="1"><g transform="translate(203.330869, 344.757427)"><g/></g></g><g fill="#0d0d0d" fill-opacity="1"><g transform="translate(214.600967, 344.757427)"><g><path d="M 17.09375 -0.339844 C 17.09375 -0.414062 17.054688 -0.46875 17 -0.507812 C 16.566406 -0.863281 16.285156 -1.316406 16.136719 -1.878906 L 11.644531 -17.394531 C 11.550781 -17.695312 11.609375 -17.976562 11.832031 -18.203125 C 11.890625 -18.296875 11.890625 -18.390625 11.851562 -18.5 C 11.796875 -18.613281 11.703125 -18.671875 11.589844 -18.671875 L 6.628906 -18.671875 C 6.519531 -18.671875 6.425781 -18.613281 6.367188 -18.5 C 6.3125 -18.390625 6.3125 -18.296875 6.386719 -18.203125 C 6.613281 -17.976562 6.667969 -17.695312 6.574219 -17.394531 L 2.105469 -1.859375 C 1.953125 -1.332031 1.652344 -0.882812 1.222656 -0.507812 C 1.164062 -0.449219 1.128906 -0.394531 1.128906 -0.339844 C 1.109375 -0.246094 1.128906 -0.167969 1.183594 -0.09375 C 1.238281 -0.0195312 1.316406 0 1.425781 0 L 5.785156 0 C 5.898438 0 5.992188 -0.0390625 6.03125 -0.148438 C 6.066406 -0.261719 6.066406 -0.355469 5.992188 -0.449219 C 5.765625 -0.675781 5.710938 -0.957031 5.785156 -1.257812 L 6.367188 -3.210938 C 6.425781 -3.417969 6.535156 -3.585938 6.707031 -3.699219 C 6.855469 -3.8125 7.042969 -3.886719 7.269531 -3.886719 L 10.96875 -3.886719 C 11.175781 -3.886719 11.363281 -3.8125 11.53125 -3.699219 C 11.683594 -3.585938 11.796875 -3.417969 11.871094 -3.210938 L 12.433594 -1.257812 C 12.511719 -0.957031 12.433594 -0.695312 12.246094 -0.46875 L 12.246094 -0.449219 C 12.171875 -0.339844 12.171875 -0.246094 12.226562 -0.148438 C 12.265625 -0.0390625 12.359375 0 12.492188 0 L 16.8125 0 C 16.90625 0 16.980469 -0.0195312 17.035156 -0.09375 C 17.09375 -0.167969 17.113281 -0.246094 17.09375 -0.339844 Z M 10.332031 -7.605469 L 7.90625 -7.605469 C 7.832031 -7.605469 7.777344 -7.625 7.738281 -7.683594 C 7.683594 -7.738281 7.664062 -7.8125 7.703125 -7.890625 L 8.921875 -12.078125 C 8.941406 -12.171875 8.996094 -12.226562 9.109375 -12.226562 C 9.222656 -12.226562 9.277344 -12.171875 9.316406 -12.078125 L 10.519531 -7.890625 C 10.539062 -7.8125 10.519531 -7.738281 10.480469 -7.683594 C 10.445312 -7.625 10.386719 -7.605469 10.332031 -7.605469 Z M 10.332031 -7.605469 "/></g></g></g><g fill="#0d0d0d" fill-opacity="1"><g transform="translate(232.839739, 344.757427)"><g><path d="M 2.253906 0.28125 L 5.878906 0.28125 L 5.878906 -3.230469 L 2.253906 -3.230469 Z M 2.253906 0.28125 "/></g></g></g><g fill="#0d0d0d" fill-opacity="1"><g transform="translate(240.972989, 344.757427)"><g><path d="M 6.5 -1.652344 L 6.5 -17.019531 C 6.5 -17.46875 6.648438 -17.863281 6.949219 -18.203125 C 7.007812 -18.296875 7.007812 -18.390625 6.96875 -18.5 C 6.914062 -18.613281 6.820312 -18.671875 6.707031 -18.671875 L 2.554688 -18.671875 C 2.421875 -18.671875 2.328125 -18.613281 2.292969 -18.5 C 2.234375 -18.390625 2.234375 -18.296875 2.308594 -18.203125 C 2.609375 -17.863281 2.78125 -17.46875 2.78125 -17.019531 L 2.78125 -1.652344 C 2.78125 -1.203125 2.609375 -0.808594 2.308594 -0.46875 C 2.234375 -0.355469 2.234375 -0.261719 2.292969 -0.148438 C 2.328125 -0.0390625 2.421875 0 2.554688 0 L 6.707031 0 C 6.820312 0 6.914062 -0.0390625 6.96875 -0.148438 C 7.007812 -0.261719 7.007812 -0.355469 6.949219 -0.46875 C 6.800781 -0.621094 6.6875 -0.808594 6.613281 -1.015625 C 6.535156 -1.222656 6.5 -1.425781 6.5 -1.652344 Z M 6.5 -1.652344 "/></g></g></g></svg>